<svg xmlns="http://www.w3.org/2000/svg" version="1.1" x="0px" y="0px" width="100px" height="100px" viewBox="0 0 100 100" enable-background="new 0 0 100 100" xml:space="preserve"><g display="none"><g display="inline"/><path display="inline" fill="#FFFFFF" d="M94.461 0.022H5.54c-3.047 0-5.517 2.47-5.517 5.517v88.921c0 3.047 2.47 5.517 5.517 5.517h47.872V61.27H40.385V46.185h13.026V35.06c0-12.91 7.887-19.94 19.403-19.94 5.516 0 10.257 0.411 11.639 0.595v13.492l-7.986 0.004c-6.265 0-7.477 2.976-7.477 7.344v9.631h14.938L81.982 61.27H68.99v38.708h25.471c3.047 0 5.517-2.47 5.517-5.517V5.54C99.978 2.492 97.508 0.022 94.461 0.022z"/></g><path fill="#001522" d="M5.023 43.432c-0.212 0-0.386 0.168-0.415 0.402 0 0.001-0.979 8.942-0.979 8.942l0.979 8.744c0.028 0.234 0.203 0.402 0.415 0.402 0.21 0 0.379-0.164 0.413-0.4l1.114-8.746 -1.114-8.942C5.402 43.596 5.233 43.432 5.023 43.432zM1.341 46.856c-0.208 0-0.371 0.16-0.399 0.39l-0.728 5.53 0.728 5.436C0.97 58.439 1.134 58.6 1.341 58.6c0.202 0 0.366-0.158 0.399-0.387l0.862-5.438L1.74 47.244C1.708 47.016 1.543 46.856 1.341 46.856zM8.935 41.678c-0.264 0-0.473 0.205-0.5 0.488 0 0.001-0.929 10.609-0.929 10.609l0.929 10.223c0.027 0.285 0.236 0.49 0.5 0.49 0.258 0 0.467-0.205 0.499-0.488l1.056-10.225L9.434 42.166C9.402 41.883 9.193 41.678 8.935 41.678zM12.879 41.303c-0.309 0-0.56 0.248-0.585 0.574l-0.878 10.903 0.878 10.545c0.025 0.326 0.276 0.572 0.585 0.572 0.305 0 0.556-0.246 0.583-0.572l0.998-10.545 -0.998-10.905C13.435 41.549 13.184 41.303 12.879 41.303z"/><polygon fill="#001522" points="17.523,63.412 17.523,63.412 17.523,63.412    "/><path fill="#001522" d="M17.523 42.662c-0.025-0.372-0.313-0.655-0.669-0.655 -0.359 0-0.646 0.283-0.668 0.66l-0.829 10.112 0.829 10.633c0.022 0.375 0.31 0.66 0.668 0.66 0.355 0 0.643-0.285 0.669-0.66l0.939-10.633L17.523 42.662zM20.863 35.584c-0.403 0-0.734 0.328-0.754 0.747 0 0.001-0.778 16.452-0.778 16.452l0.778 10.633c0.021 0.416 0.352 0.742 0.754 0.742 0.398 0 0.73-0.326 0.753-0.746v0.004l0.881-10.633 -0.881-16.453C21.593 35.913 21.261 35.584 20.863 35.584zM24.84 31.794c-0.452 0-0.82 0.365-0.84 0.831 0 0.001-0.728 20.216-0.728 20.216l0.729 10.564c0.018 0.463 0.387 0.828 0.838 0.828 0.448 0 0.817-0.365 0.838-0.832l0 0.006 0.823-10.566 -0.823-20.216C25.657 32.16 25.289 31.794 24.84 31.794zM28.974 29.968c-0.501 0-0.906 0.404-0.924 0.918 0 0-0.678 21.901-0.678 21.901l0.678 10.459c0.018 0.508 0.423 0.912 0.924 0.912 0.498 0 0.903-0.402 0.924-0.918l0 0.008 0.765-10.461 -0.765-21.901C29.877 30.371 29.472 29.968 28.974 29.968zM34.086 30.148c-0.018-0.562-0.46-1.002-1.008-1.002 -0.55 0-0.993 0.44-1.009 1.003l-0.627 22.64 0.627 10.393c0.016 0.557 0.459 0.996 1.009 0.996 0.548 0 0.99-0.439 1.008-1.002l0.708-10.387L34.086 30.148z"/><polygon fill="#001522" points="34.086,63.176 34.086,63.176 34.086,63.184    "/><path fill="#001522" d="M37.214 29.641c-0.6 0-1.08 0.478-1.094 1.087l-0.577 22.062 0.578 10.293c0.014 0.604 0.494 1.084 1.094 1.084 0.597 0 1.077-0.48 1.093-1.088v0.006l0.649-10.295 -0.649-22.063C38.292 30.118 37.812 29.641 37.214 29.641zM41.382 30.361c-0.648 0-1.166 0.516-1.179 1.174l-0.526 21.258 0.527 10.227c0.012 0.652 0.53 1.168 1.178 1.168 0.647 0 1.165-0.516 1.179-1.176v0.01l0.59-10.229 -0.59-21.26C42.547 30.876 42.029 30.361 41.382 30.361zM46.281 26.454c-0.201-0.136-0.441-0.215-0.698-0.215 -0.25 0-0.483 0.076-0.681 0.205 -0.344 0.226-0.576 0.614-0.583 1.055l-0.004 0.238 -0.473 25.05c0 0.016 0.477 10.168 0.477 10.168 0 0.016 0.002 0.029 0.003 0.043 0.015 0.285 0.122 0.545 0.294 0.752 0.232 0.279 0.581 0.457 0.966 0.457 0.343 0 0.656-0.141 0.884-0.369 0.229-0.227 0.373-0.541 0.38-0.889l0.053-1.006 0.479-9.148 -0.532-25.297C46.839 27.064 46.615 26.681 46.281 26.454z"/><polygon fill="#001522" points="46.846,62.957 46.847,62.953 46.846,62.957 46.847,62.951 46.847,62.949 46.847,62.949      46.847,62.953    "/><path fill="#001522" d="M50.451 24.056c-0.202-0.122-0.436-0.193-0.686-0.193 -0.322 0-0.618 0.116-0.851 0.308 -0.299 0.247-0.493 0.621-0.499 1.038l-0.003 0.139 -0.55 27.45 0.281 5.074 0.272 4.939c0.01 0.73 0.615 1.334 1.35 1.334 0.732 0 1.337-0.604 1.347-1.346v0.012l0 0 0.601-10.014 0 0 -0.601-27.592C51.105 24.718 50.841 24.291 50.451 24.056zM87.539 39.738c-1.677 0-3.279 0.34-4.736 0.951 -0.975-11.037-10.23-19.696-21.521-19.696 -2.763 0-5.456 0.544-7.834 1.464 -0.925 0.358-1.17 0.725-1.179 1.439 0 0.001 0 38.872 0 38.872 0.01 0.748 0.591 1.332 1.323 1.404 0.031 0.004 33.947 0 33.947 0 6.765 0 12.247-5.422 12.247-12.186C99.786 45.221 94.304 39.738 87.539 39.738z"/><path fill="#001522" d="M9.992 71.541c-1.436-0.336-1.823-0.518-1.823-1.086 0-0.4 0.323-0.814 1.292-0.814 0.829 0 1.476 0.338 2.057 0.932l1.308-1.268c-0.854-0.893-1.889-1.424-3.299-1.424 -1.785 0-3.233 1.01-3.233 2.654 0 1.783 1.164 2.314 2.833 2.701 1.707 0.389 2.018 0.648 2.018 1.23 0 0.686-0.505 0.984-1.579 0.984 -0.866 0-1.68-0.299-2.315-1.037l-1.307 1.164c0.686 1.008 2.006 1.643 3.519 1.643 2.471 0 3.558-1.164 3.558-2.885C13.02 72.369 11.429 71.879 9.992 71.541zM18.326 67.881c-2.471 0-3.932 1.914-3.932 4.672 0 2.756 1.461 4.668 3.932 4.668 2.47 0 3.933-1.912 3.933-4.668C22.258 69.795 20.795 67.881 18.326 67.881zM18.326 75.424c-1.463 0-2.071-1.256-2.071-2.871 0-1.619 0.608-2.873 2.071-2.873 1.461 0 2.069 1.254 2.069 2.873C20.395 74.168 19.787 75.424 18.326 75.424zM29.566 73.107c0 1.449-0.711 2.344-1.862 2.344 -1.151 0-1.851-0.922-1.851-2.369v-5.059h-1.811v5.084c0 2.639 1.476 4.113 3.662 4.113 2.302 0 3.672-1.516 3.672-4.139v-5.059h-1.811V73.107zM39.191 71.854c0 0.502 0.025 1.643 0.025 1.98 -0.116-0.234-0.414-0.689-0.633-1.025l-3.209-4.785H33.64v9.055h1.786v-3.982c0-0.506-0.027-1.645-0.027-1.98 0.118 0.232 0.416 0.686 0.634 1.023l3.325 4.939h1.618v-9.055h-1.785V71.854zM46.136 68.023h-2.832v9.055h2.703c2.328 0 4.632-1.346 4.632-4.525C50.639 69.24 48.724 68.023 46.136 68.023zM46.007 75.32h-0.893v-5.537h0.958c1.914 0 2.703 0.916 2.703 2.77C48.776 74.209 47.909 75.32 46.007 75.32zM56.24 69.68c0.814 0 1.333 0.363 1.655 0.982l1.681-0.775c-0.568-1.178-1.603-2.006-3.311-2.006 -2.366 0-4.022 1.914-4.022 4.672 0 2.857 1.589 4.668 3.958 4.668 1.644 0 2.729-0.764 3.351-2.043l-1.527-0.908c-0.478 0.805-0.957 1.154-1.771 1.154 -1.359 0-2.148-1.244-2.148-2.871C54.104 70.871 54.883 69.68 56.24 69.68zM62.957 68.023h-1.812v9.055h5.445v-1.785h-3.633V68.023zM71.359 67.881c-2.472 0-3.933 1.914-3.933 4.672 0 2.756 1.461 4.668 3.933 4.668 2.471 0 3.934-1.912 3.934-4.668C75.293 69.795 73.83 67.881 71.359 67.881zM71.359 75.424c-1.463 0-2.07-1.256-2.07-2.871 0-1.619 0.607-2.873 2.07-2.873 1.461 0 2.068 1.254 2.068 2.873C73.428 74.168 72.82 75.424 71.359 75.424zM82.601 73.107c0 1.449-0.709 2.344-1.861 2.344s-1.851-0.922-1.851-2.369v-5.059h-1.811v5.084c0 2.639 1.475 4.113 3.661 4.113 2.303 0 3.675-1.516 3.675-4.139v-5.059h-1.813V73.107zM89.51 68.023h-2.834v9.055h2.702c2.333 0 4.632-1.346 4.632-4.525C94.01 69.24 92.098 68.023 89.51 68.023zM89.378 75.32h-0.891v-5.537h0.956c1.914 0 2.703 0.916 2.703 2.77C92.146 74.209 91.281 75.32 89.378 75.32z"/></svg>