<?xml version="1.0" encoding="utf-8"?>
<!-- Generator: Adobe Illustrator 16.0.4, SVG Export Plug-In . SVG Version: 6.00 Build 0)  -->
<!DOCTYPE svg PUBLIC "-//W3C//DTD SVG 1.1//EN" "http://www.w3.org/Graphics/SVG/1.1/DTD/svg11.dtd">
<svg version="1.1" id="Layer_1" xmlns="http://www.w3.org/2000/svg" xmlns:xlink="http://www.w3.org/1999/xlink" x="0px" y="0px"
	 width="100px" height="100px" viewBox="0 0 100 100" enable-background="new 0 0 100 100" xml:space="preserve">
<g id="Layer_2">
</g>
<path id="White_2_" fill="#FFFFFF" d="M94.461,0.022H5.54c-3.047,0-5.517,2.47-5.517,5.517v88.921c0,3.047,2.47,5.517,5.517,5.517
	h47.872V61.27H40.385V46.185h13.026V35.06c0-12.91,7.887-19.94,19.403-19.94c5.516,0,10.257,0.411,11.639,0.595v13.492l-7.986,0.004
	c-6.265,0-7.477,2.976-7.477,7.344v9.631h14.938L81.982,61.27H68.99v38.708h25.471c3.047,0,5.517-2.47,5.517-5.517V5.54
	C99.978,2.492,97.508,0.022,94.461,0.022z"/>
</svg>
